<svg xmlns="http://www.w3.org/2000/svg" xmlns:xlink="http://www.w3.org/1999/xlink" width="50" zoomAndPan="magnify" viewBox="0 0 37.5 37.499999" height="50" preserveAspectRatio="xMidYMid meet" version="1.0"><defs><clipPath id="8edbc878fe"><path d="M 8 1.351562 L 36.675781 1.351562 L 36.675781 30 L 8 30 Z M 8 1.351562 " clip-rule="nonzero"/></clipPath><clipPath id="b308edc916"><path d="M 1.425781 9 L 29 9 L 29 36.601562 L 1.425781 36.601562 Z M 1.425781 9 " clip-rule="nonzero"/></clipPath></defs><g clip-path="url(#8edbc878fe)"><path stroke-linecap="round" transform="matrix(0.370273, 0, 0, 0.370273, -8.165072, -8.258587)" fill="none" stroke-linejoin="round" d="M 116.249278 100.002187 C 118.475253 95.940573 119.055483 91.583569 119.034384 87.005023 C 118.949987 70.326032 119.034384 53.668141 119.034384 36.9997 C 119.034384 29.994735 117.029951 28.000852 110.024986 28.000852 C 92.364879 28.000852 74.694222 28.000852 57.034114 28.000852 C 53.848121 28.000852 50.799273 28.306792 48.035266 29.994735 " stroke="#000000" stroke-width="4" stroke-opacity="1" stroke-miterlimit="4"/></g><g clip-path="url(#b308edc916)"><path stroke-linecap="round" transform="matrix(0.370273, 0, 0, 0.370273, -8.165072, -8.258587)" fill="none" stroke-linejoin="round" d="M 34.004236 49.005197 C 29.467889 49.996864 27.874892 52.876917 27.92764 57.497662 C 28.106984 75.326564 27.990938 93.166016 28.001488 110.994918 C 28.001488 116.491283 30.396258 119.002099 35.99812 119.002099 C 53.827022 119.054847 71.655923 119.054847 89.495375 119.002099 C 95.213283 119.002099 96.996173 117.092613 96.996173 111.5224 L 96.996173 56.516545 C 96.996173 50.766988 95.192184 49.005197 88.999542 49.005197 C 70.822501 49.005197 52.656011 49.005197 34.50007 49.005197 " stroke="#000000" stroke-width="4" stroke-opacity="1" stroke-miterlimit="4"/></g></svg>